P3
3 5
255
100
23
54
34
26
56
87
203
23
10
54
6
30
62
101
88
23
65
6
2
12
43
30
111
23
65
6
43
30
111
54
6
30
10
54
6
30
62
101
10
54
6
62
101
88