P3
4 4
255
12
15
100
10
20
30
43
54
12
10
34
23
54
34
64
42
34
12
90
111
42
64
42
34
12
90
111
42
10
20
30
43
54
12
12
90
111
54
12
10
34
23
54
34
64
42
10
42
